<svg xmlns="http://www.w3.org/2000/svg" width="2078" height="335" fill="none" xmlns:v="https://vecta.io/nano"><g clip-path="url(#A)"><path fill-rule="evenodd" d="M-14.542 12.936C-7.625-30.118 54.473 80.42 131.892 115.12s123.642 10.704 191.87 40.056 138.65 93.07 290.492 127.922S906.492 232.66 1038 242.214c.35.026 41.28-1.458 89.9 13.197 115.8 34.886 206.97 66.848 282.03 56.444 115.82-16.054 170.6-87.32 266.34-127.327 33.06-13.815 77.27-28.828 124.43-39.95 46.2-10.9 95.4-17.856 126.67-36.68 27.05-16.282 65.24-58.2 100.92-83.998 3.1-2.245 16.96-14.792 23.26-17.485 15.1-6.453 33.58-7.643 38.72-5.32 7.92 3.59 7.92 289.765 0 858.523L-14.542 860V12.936z" fill="#fafaf6"/></g><defs><clipPath id="A"><path fill="#fff" d="M0 0h2078v860H0z"/></clipPath></defs></svg>